HIERARCHY
ROOT hip
{
  OFFSET 0 0 0
  CHANNELS 6 Xposition Yposition Zposition Zrotation Yrotation Xrotation
  JOINT abdomen
  {
    OFFSET 0 20.6881 -0.73152
    CHANNELS 3 Zrotation Xrotation Yrotation
    JOINT chest
    {
      OFFSET 0 11.7043 -0.48768
      CHANNELS 3 Zrotation Xrotation Yrotation
      JOINT neck
      {
        OFFSET 0 22.1894 -2.19456
        CHANNELS 3 Zrotation Xrotation Yrotation
        JOINT head
        {
          OFFSET -0.24384 7.07133 1.2192
          CHANNELS 3 Zrotation Xrotation Yrotation
          JOINT leftEye
          {
            OFFSET 4.14528 8.04674 8.04672
            CHANNELS 3 Zrotation Xrotation Yrotation
            End Site
            {
              OFFSET 1 0 0
            }
          }
          JOINT rightEye
          {
            OFFSET -3.6576 8.04674 8.04672
            CHANNELS 3 Zrotation Xrotation Yrotation
            End Site
            {
              OFFSET 1 0 0
            }
          }
        }
      }
      JOINT rCollar
      {
        OFFSET -2.68224 19.2634 -4.8768
        CHANNELS 3 Zrotation Xrotation Yrotation
        JOINT rShldr
        {
          OFFSET -8.77824 -1.95073 1.46304
          CHANNELS 3 Zrotation Xrotation Yrotation
          JOINT rForeArm
          {
            OFFSET -28.1742 -1.7115 0.48768
            CHANNELS 3 Zrotation Xrotation Yrotation
            JOINT rHand
            {
              OFFSET -22.5879 0.773209 7.07136
              CHANNELS 3 Zrotation Xrotation Yrotation
              JOINT rThumb1
              {
                OFFSET -1.2192 -0.487915 3.41376
                CHANNELS 3 Zrotation Xrotation Yrotation
                JOINT rThumb2
                {
                  OFFSET -3.37035 -0.52449 3.41376
                  CHANNELS 3 Zrotation Xrotation Yrotation
                  End Site
                  {
                    OFFSET -1.78271 -1.18214 1.43049
                  }
                }
              }
              JOINT rIndex1
              {
                OFFSET -7.75947 0.938293 5.60832
                CHANNELS 3 Zrotation Xrotation Yrotation
                JOINT rIndex2
                {
                  OFFSET -2.54057 -0.884171 1.56538
                  CHANNELS 3 Zrotation Xrotation Yrotation
                  End Site
                  {
                    OFFSET -1.62519 -0.234802 1.16502
                  }
                }
              }
              JOINT rMid1
              {
                OFFSET -8.24714 1.18213 3.41376
                CHANNELS 3 Zrotation Xrotation Yrotation
                JOINT rMid2
                {
                  OFFSET -3.10165 -0.590103 1.0647
                  CHANNELS 3 Zrotation Xrotation Yrotation
                  End Site
                  {
                    OFFSET -2.48547 -0.328903 0.83742
                  }
                }
              }
              JOINT rRing1
              {
                OFFSET -8.82822 0.546677 1.51678
                CHANNELS 3 Zrotation Xrotation Yrotation
                JOINT rRing2
                {
                  OFFSET -2.60934 -0.819778 -0.0198488
                  CHANNELS 3 Zrotation Xrotation Yrotation
                  End Site
                  {
                    OFFSET -2.33842 -0.294052 0.168128
                  }
                }
              }
              JOINT rPinky1
              {
                OFFSET -8.27202 -0.0477905 -0.4584
                CHANNELS 3 Zrotation Xrotation Yrotation
                JOINT rPinky2
                {
                  OFFSET -1.82734 -0.647385 -0.700984
                  CHANNELS 3 Zrotation Xrotation Yrotation
                  End Site
                  {
                    OFFSET -1.69225 -0.51767 -0.607171
                  }
                }
              }
            }
          }
        }
      }
      JOINT lCollar
      {
        OFFSET 2.68224 19.2634 -4.8768
        CHANNELS 3 Zrotation Xrotation Yrotation
        JOINT lShldr
        {
          OFFSET 8.77824 -1.95073 1.46304
          CHANNELS 3 Zrotation Xrotation Yrotation
          JOINT lForeArm
          {
            OFFSET 28.1742 -1.7115 0.48768
            CHANNELS 3 Zrotation Xrotation Yrotation
            JOINT lHand
            {
              OFFSET 22.5879 0.773209 7.07136
              CHANNELS 3 Zrotation Xrotation Yrotation
              JOINT lThumb1
              {
                OFFSET 1.2192 -0.487915 3.41376
                CHANNELS 3 Zrotation Xrotation Yrotation
                JOINT lThumb2
                {
                  OFFSET 3.37035 -0.52449 3.41376
                  CHANNELS 3 Zrotation Xrotation Yrotation
                  End Site
                  {
                    OFFSET 1.78271 -1.18214 1.43049
                  }
                }
              }
              JOINT lIndex1
              {
                OFFSET 7.75947 0.938293 5.60832
                CHANNELS 3 Zrotation Xrotation Yrotation
                JOINT lIndex2
                {
                  OFFSET 2.54057 -0.884171 1.56538
                  CHANNELS 3 Zrotation Xrotation Yrotation
                  End Site
                  {
                    OFFSET 1.62519 -0.234802 1.16502
                  }
                }
              }
              JOINT lMid1
              {
                OFFSET 8.24714 1.18213 3.41376
                CHANNELS 3 Zrotation Xrotation Yrotation
                JOINT lMid2
                {
                  OFFSET 3.10165 -0.590103 1.0647
                  CHANNELS 3 Zrotation Xrotation Yrotation
                  End Site
                  {
                    OFFSET 2.48547 -0.328903 0.83742
                  }
                }
              }
              JOINT lRing1
              {
                OFFSET 8.82822 0.546677 1.51678
                CHANNELS 3 Zrotation Xrotation Yrotation
                JOINT lRing2
                {
                  OFFSET 2.60934 -0.819778 -0.0198488
                  CHANNELS 3 Zrotation Xrotation Yrotation
                  End Site
                  {
                    OFFSET 2.33842 -0.294052 0.168128
                  }
                }
              }
              JOINT lPinky1
              {
                OFFSET 8.27202 -0.0477905 -0.4584
                CHANNELS 3 Zrotation Xrotation Yrotation
                JOINT lPinky2
                {
                  OFFSET 1.82734 -0.647385 -0.700984
                  CHANNELS 3 Zrotation Xrotation Yrotation
                  End Site
                  {
                    OFFSET 1.69225 -0.51767 -0.607171
                  }
                }
              }
            }
          }
        }
      }
    }
  }
  JOINT rButtock
  {
    OFFSET -8.77824 4.35084 1.2192
    CHANNELS 3 Zrotation Xrotation Yrotation
    JOINT rThigh
    {
      OFFSET 0 -1.70687 -2.19456
      CHANNELS 3 Zrotation Xrotation Yrotation
      JOINT rShin
      {
        OFFSET 0 -36.8199 0.73152
        CHANNELS 3 Zrotation Xrotation Yrotation
        JOINT rFoot
        {
          OFFSET 0.73152 -45.1104 -5.12064
          CHANNELS 3 Zrotation Xrotation Yrotation
          End Site
          {
            OFFSET -1.1221 -3.69964 12.103
          }
        }
      }
    }
  }
  JOINT lButtock
  {
    OFFSET 8.77824 4.35084 1.2192
    CHANNELS 3 Zrotation Xrotation Yrotation
    JOINT lThigh
    {
      OFFSET 0 -1.70687 -2.19456
      CHANNELS 3 Zrotation Xrotation Yrotation
      JOINT lShin
      {
        OFFSET 0 -36.8199 0.73152
        CHANNELS 3 Zrotation Xrotation Yrotation
        JOINT lFoot
        {
          OFFSET -0.73152 -45.1104 -5.12064
          CHANNELS 3 Zrotation Xrotation Yrotation
          End Site
          {
            OFFSET 1.1221 -3.69964 12.103
          }
        }
      }
    }
  }
}
MOTION
Frames:	4
Frame Time:	0.00833333
15.246799999999999 64.32090000000001 23.1706 -172.306677 14.345603 -178.035535 2.962255 23.05949 -1.047508 6.574154 -13.082377 1.275983 2.696872 12.068733 36.557065 -20.886169 -22.285663 -53.340384 -3.007372 0.304074 -11.544437 1.052815 0.050692 5.513113 -0.358815 -2.883124 -2.318246 58.13061 -45.782408 50.153957 -6.602741 -1.127939 96.21655 -5.592773 -12.919084 -2.659845 -3.032394 6.348136 0.286042 -159.098461 -59.482328 117.371525 11.270633 -21.81901 -9.173094 -168.422821 -20.861049 103.627592 -159.244849 -8.023581 143.156262 2.436633 14.877825 6.040555 -146.018121 -8.486402 -174.010633 13.427277 26.073228 -12.028362 -156.096912 35.318482 -141.833394 9.427572 42.858878 6.167006 82.856734 68.531902 -86.470028 108.118031 41.833963 -73.284986 18.876726 -1.179429 149.727931 -167.145737 -37.907925 -140.849841 102.997155 34.191107 -59.127904 30.676203 -11.351857 -36.769589 139.550426 3.39086 -111.798133 85.617502 53.461834 -66.953049 0.493164 -12.283618 1.609099 146.017248 26.436918 -138.008002 66.873055 74.226474 -81.662201 161.99683 -19.872279 -172.807542 7.707661 -8.025417 4.891167 141.521682 12.297962 146.994305 -179.70843 71.342788 -0.0 148.905368 33.119629 -0.0 -23.744747 61.309541 56.588062 -17.982413 14.55942 -36.203804 -179.193555 72.839515 -0.699928 -141.926428 3.497812 -1.847174 -23.041081 84.737069 -103.651108 -178.457925 22.421765 -137.963353
15.2842 65.27629999999999 23.4582 -170.965459 8.434515 -177.841233 2.906773 22.307666 31.274725 -1.487129 -14.571032 -29.712695 9.216885 19.716042 86.594813 -37.78636 6.780476 -96.584808 -1.92899 0.15529 -9.204273 0.947744 0.035073 4.238693 -6.807937 -74.043465 -25.415127 45.125547 -32.599938 15.796753 -55.344653 17.055435 133.020048 12.937215 -56.358229 2.456743 179.602644 -19.171504 89.016724 -125.564831 13.938517 64.803354 -175.153284 -58.63801 122.446963 -3.293628 37.953164 2.699687 -18.867604 38.774421 17.251445 -171.933682 -48.591539 153.948624 -1.431487 3.567246 0.550271 10.715188 9.684688 2.853833 -17.384871 -23.135915 -16.949229 -88.426348 -52.300562 -96.349113 158.812088 -47.972825 -170.792176 71.65529 -36.301394 80.504878 3.704701 35.636007 142.360425 -176.377582 -15.265615 -143.36804 103.305145 35.792337 -59.731912 53.595718 -5.042395 -46.070627 142.019813 0.925096 -114.720715 149.099819 8.237137 -114.019773 164.077117 -5.995274 -143.660393 1.277642 0.377325 0.164399 2.057086 -0.964871 2.456371 136.0056 59.760134 -152.737958 3.036488 -2.677833 0.93982 -3.485004 -3.541919 -1.052552 -4.023751 4.445821 -2.096697 -22.538233 -33.22614 180.0 -24.714375 -66.551424 81.322453 132.006143 11.266778 -39.423041 0.808174 2.575877 1.301026 68.605667 -53.112987 156.181202 88.697215 -3.314201 105.112391 158.946381 12.573792 174.276479
15.071399999999999 66.1722 23.4602 -169.999506 2.437182 -177.761065 4.207636 20.76774 32.791247 -2.899921 -13.420462 -29.736439 -11.040228 24.624739 -88.771156 42.184514 9.299353 73.981259 -0.816762 0.047603 -6.671083 0.876191 0.01894 2.476633 -155.910294 -3.051247 163.332923 -159.202292 3.343339 -165.627727 -0.441573 -47.529418 88.345527 -7.320694 -1.512634 -2.262978 -78.164313 38.221338 42.434958 -103.361829 -7.937112 76.126509 -110.232136 36.1567 92.542457 3.584176 0.644961 -7.78893 -159.219526 -8.955498 141.816724 9.287449 2.348058 5.93097 -147.195949 0.787163 -179.975528 9.793423 29.711807 -4.039456 -27.622512 -33.644641 -26.477267 -69.647218 -55.448494 -77.98063 -2.332599 -18.839596 4.013876 -71.613039 -4.363025 -12.526399 -149.19533 -3.017251 -16.643542 164.459618 36.921823 -135.820119 -0.844761 -2.166615 1.628975 110.641901 6.747491 -99.988019 110.277915 34.198283 -90.89347 -8.890069 0.597647 5.148291 124.920106 53.323401 -111.907818 84.591051 61.874548 -74.63147 146.46404 -10.510068 173.460757 -15.237522 62.867358 5.526769 0.57884 0.343628 -1.241355 147.86266 12.457577 146.10842 3.755388 3.39263 3.989191 -31.181769 -24.799934 124.725581 43.416157 -48.076489 -106.529811 27.667361 -25.468158 -38.39637 -0.38686 1.231516 0.505608 70.074843 -51.100678 -0.0 -83.79925 22.245695 -41.412972 -131.227642 46.143712 -159.925989
14.5923 67.34 23.194300000000002 -169.386372 -3.502234 -177.662975 6.471811 18.907333 -1.849105 2.406904 -12.223605 7.220696 11.090144 22.621624 97.737664 -38.562707 15.969869 -103.633694 -0.15881 0.008344 -6.015168 1.160688 -0.000801 -0.079066 -155.168951 -0.507572 162.544874 37.708294 59.141822 -24.085285 -7.913278 78.836371 100.117669 -7.82492 1.920005 -1.53693 4.68778 -5.849181 -0.198211 -8.426611 8.199501 -0.999739 9.541382 -22.358197 -7.367334 -82.865492 48.034002 66.402654 -13.338709 30.84935 11.474779 6.203534 -25.677646 -9.054354 -148.049259 0.511167 -179.61778 9.101552 29.744411 -2.2885 -16.471437 -23.600801 -16.221755 -15.674993 -43.868681 -21.924854 0.613506 0.014928 0.266355 110.270077 -19.660482 -152.779321 73.39476 37.8516 105.442215 -119.223655 -72.439208 -99.773926 166.050425 -1.346481 -91.76992 -178.500303 -20.586753 -91.083962 -58.768633 -71.269218 -17.422935 174.459267 -39.342277 -112.01216 -114.388636 -82.915767 -87.136202 172.03322 -41.220659 -146.394759 66.013164 75.034344 -80.777347 -3.297811 -13.992744 3.927 -10.446257 41.512028 -12.799314 161.455426 51.908595 149.907114 2.189704 1.329189 3.399 -23.268725 -19.580762 -112.447531 -64.159567 -12.59365 1.36981 -5.275977 -46.391833 91.682843 -178.050694 76.278795 -2.006524 -147.332048 1.530427 92.385159 75.714239 -9.841862 -50.717624 -96.132503 1.910946 6.647157
